<svg width="32" height="32" viewBox="0 0 32 32" fill="none" xmlns="http://www.w3.org/2000/svg">
	<g>
		<path d="M4.37733 14.5867C4.0028 14.9617 3.79243 15.47 3.79243 16C3.79243 16.53 4.0028 17.0383 4.37733 17.4133L11.9187 24.9573C12.1044 25.1431 12.325 25.2905 12.5677 25.391C12.8104 25.4916 13.0706 25.5433 13.3333 25.5433C13.5961 25.5433 13.8562 25.4916 14.0989 25.391C14.3417 25.2905 14.5622 25.1431 14.748 24.9573C14.9338 24.7716 15.0811 24.551 15.1817 24.3083C15.2822 24.0655 15.334 23.8054 15.334 23.5427C15.334 23.2799 15.2822 23.0198 15.1817 22.7771C15.0811 22.5343 14.9338 22.3138 14.748 22.128L10.62 18H26C26.5304 18 27.0391 17.7893 27.4142 17.4142C27.7893 17.0391 28 16.5304 28 16C28 15.4696 27.7893 14.9609 27.4142 14.5858C27.0391 14.2107 26.5304 14 26 14H10.62L14.748 9.872C15.123 9.49681 15.3336 8.988 15.3335 8.45753C15.3334 7.92705 15.1225 7.41835 14.7473 7.04333C14.3721 6.66832 13.8633 6.4577 13.3329 6.45783C12.8024 6.45795 12.2937 6.66881 11.9187 7.044L4.37733 14.5867Z" fill="#404040"/>
	</g>
</svg>